<mxfile host="Electron" modified="2024-05-15T07:53:08.205Z" agent="Mozilla/5.0 (Windows NT 10.0; Win64; x64) AppleWebKit/537.36 (KHTML, like Gecko) draw.io/23.1.5 Chrome/120.0.6099.109 Electron/28.1.0 Safari/537.36" etag="BXNIhsCHudCbbF2JqKIV" version="23.1.5" type="device">
  <diagram name="Страница — 1" id="vPOU0Pet1-oZmpQxfcsp">
    <mxGraphModel dx="989" dy="582" grid="1" gridSize="10" guides="1" tooltips="1" connect="1" arrows="1" fold="1" page="1" pageScale="1" pageWidth="827" pageHeight="1169" math="0" shadow="0">
      <root>
        <mxCell id="0" />
        <mxCell id="1" parent="0" />
        <mxCell id="Mglgyc_87ORojp1Q-Y0--1" value="&lt;b&gt;Index database&lt;/b&gt;" style="shape=cylinder3;whiteSpace=wrap;html=1;boundedLbl=1;backgroundOutline=1;size=15;" parent="1" vertex="1">
          <mxGeometry x="575" y="290" width="110" height="110" as="geometry" />
        </mxCell>
        <mxCell id="Mglgyc_87ORojp1Q-Y0--2" value="&lt;b&gt;Resources Loader&lt;/b&gt;" style="rounded=0;whiteSpace=wrap;html=1;" parent="1" vertex="1">
          <mxGeometry x="170" y="190" width="120" height="60" as="geometry" />
        </mxCell>
        <mxCell id="Mglgyc_87ORojp1Q-Y0--3" value="&lt;b&gt;Multithreaded primary indexer&lt;/b&gt;" style="rounded=0;whiteSpace=wrap;html=1;" parent="1" vertex="1">
          <mxGeometry x="380" y="315" width="120" height="60" as="geometry" />
        </mxCell>
        <mxCell id="Mglgyc_87ORojp1Q-Y0--4" value="&lt;b&gt;Resources rank estimator&lt;/b&gt;" style="rounded=0;whiteSpace=wrap;html=1;" parent="1" vertex="1">
          <mxGeometry x="570" y="160" width="120" height="60" as="geometry" />
        </mxCell>
        <mxCell id="Mglgyc_87ORojp1Q-Y0--5" value="&lt;b&gt;Secondary indexer&lt;/b&gt;" style="rounded=0;whiteSpace=wrap;html=1;" parent="1" vertex="1">
          <mxGeometry x="570" y="460" width="120" height="60" as="geometry" />
        </mxCell>
        <mxCell id="Mglgyc_87ORojp1Q-Y0--6" value="&lt;b&gt;Synchronizator&lt;/b&gt;" style="rounded=0;whiteSpace=wrap;html=1;" parent="1" vertex="1">
          <mxGeometry x="760" y="320" width="120" height="60" as="geometry" />
        </mxCell>
        <mxCell id="Mglgyc_87ORojp1Q-Y0--7" value="&lt;b&gt;Resources Source&lt;/b&gt;" style="ellipse;shape=cloud;whiteSpace=wrap;html=1;" parent="1" vertex="1">
          <mxGeometry x="155" y="20" width="170" height="110" as="geometry" />
        </mxCell>
        <mxCell id="Mglgyc_87ORojp1Q-Y0--10" value="" style="endArrow=classic;html=1;rounded=0;entryX=0.5;entryY=0;entryDx=0;entryDy=0;exitX=0.451;exitY=0.935;exitDx=0;exitDy=0;exitPerimeter=0;" parent="1" source="Mglgyc_87ORojp1Q-Y0--7" target="Mglgyc_87ORojp1Q-Y0--2" edge="1">
          <mxGeometry width="50" height="50" relative="1" as="geometry">
            <mxPoint x="237" y="130" as="sourcePoint" />
            <mxPoint x="210" y="310" as="targetPoint" />
          </mxGeometry>
        </mxCell>
        <mxCell id="Mglgyc_87ORojp1Q-Y0--12" value="" style="endArrow=classic;html=1;rounded=0;entryX=0;entryY=0.5;entryDx=0;entryDy=0;entryPerimeter=0;exitX=1;exitY=0.5;exitDx=0;exitDy=0;" parent="1" source="Mglgyc_87ORojp1Q-Y0--3" target="Mglgyc_87ORojp1Q-Y0--1" edge="1">
          <mxGeometry width="50" height="50" relative="1" as="geometry">
            <mxPoint x="420" y="510" as="sourcePoint" />
            <mxPoint x="470" y="460" as="targetPoint" />
          </mxGeometry>
        </mxCell>
        <mxCell id="Mglgyc_87ORojp1Q-Y0--13" value="" style="endArrow=classic;html=1;rounded=0;entryX=0.5;entryY=1;entryDx=0;entryDy=0;exitX=0.5;exitY=0;exitDx=0;exitDy=0;exitPerimeter=0;" parent="1" source="Mglgyc_87ORojp1Q-Y0--1" target="Mglgyc_87ORojp1Q-Y0--4" edge="1">
          <mxGeometry width="50" height="50" relative="1" as="geometry">
            <mxPoint x="420" y="520" as="sourcePoint" />
            <mxPoint x="470" y="470" as="targetPoint" />
          </mxGeometry>
        </mxCell>
        <mxCell id="Mglgyc_87ORojp1Q-Y0--14" value="" style="endArrow=classic;html=1;rounded=0;exitX=0.5;exitY=1;exitDx=0;exitDy=0;exitPerimeter=0;entryX=0.5;entryY=0;entryDx=0;entryDy=0;" parent="1" source="Mglgyc_87ORojp1Q-Y0--1" target="Mglgyc_87ORojp1Q-Y0--5" edge="1">
          <mxGeometry width="50" height="50" relative="1" as="geometry">
            <mxPoint x="570" y="600" as="sourcePoint" />
            <mxPoint x="620" y="550" as="targetPoint" />
          </mxGeometry>
        </mxCell>
        <mxCell id="Mglgyc_87ORojp1Q-Y0--15" value="" style="endArrow=classic;html=1;rounded=0;entryX=0.691;entryY=1.001;entryDx=0;entryDy=0;entryPerimeter=0;exitX=0.675;exitY=0.017;exitDx=0;exitDy=0;exitPerimeter=0;" parent="1" source="Mglgyc_87ORojp1Q-Y0--5" target="Mglgyc_87ORojp1Q-Y0--1" edge="1">
          <mxGeometry width="50" height="50" relative="1" as="geometry">
            <mxPoint x="750" y="680" as="sourcePoint" />
            <mxPoint x="800" y="630" as="targetPoint" />
          </mxGeometry>
        </mxCell>
        <mxCell id="Mglgyc_87ORojp1Q-Y0--16" value="" style="endArrow=classic;html=1;rounded=0;exitX=0.658;exitY=1.033;exitDx=0;exitDy=0;exitPerimeter=0;entryX=0.672;entryY=-0.003;entryDx=0;entryDy=0;entryPerimeter=0;" parent="1" source="Mglgyc_87ORojp1Q-Y0--4" edge="1" target="Mglgyc_87ORojp1Q-Y0--1">
          <mxGeometry width="50" height="50" relative="1" as="geometry">
            <mxPoint x="600" y="660" as="sourcePoint" />
            <mxPoint x="650" y="290" as="targetPoint" />
          </mxGeometry>
        </mxCell>
        <mxCell id="Mglgyc_87ORojp1Q-Y0--17" value="" style="endArrow=classic;html=1;rounded=0;exitX=1.004;exitY=0.461;exitDx=0;exitDy=0;exitPerimeter=0;entryX=0.011;entryY=0.334;entryDx=0;entryDy=0;entryPerimeter=0;" parent="1" source="Mglgyc_87ORojp1Q-Y0--1" target="Mglgyc_87ORojp1Q-Y0--6" edge="1">
          <mxGeometry width="50" height="50" relative="1" as="geometry">
            <mxPoint x="720" y="470" as="sourcePoint" />
            <mxPoint x="770" y="420" as="targetPoint" />
          </mxGeometry>
        </mxCell>
        <mxCell id="Mglgyc_87ORojp1Q-Y0--18" value="" style="endArrow=classic;html=1;rounded=0;exitX=0;exitY=0.65;exitDx=0;exitDy=0;entryX=1.009;entryY=0.627;entryDx=0;entryDy=0;entryPerimeter=0;exitPerimeter=0;" parent="1" source="Mglgyc_87ORojp1Q-Y0--6" target="Mglgyc_87ORojp1Q-Y0--1" edge="1">
          <mxGeometry width="50" height="50" relative="1" as="geometry">
            <mxPoint x="790" y="490" as="sourcePoint" />
            <mxPoint x="840" y="440" as="targetPoint" />
          </mxGeometry>
        </mxCell>
        <mxCell id="Mglgyc_87ORojp1Q-Y0--19" value="&lt;b&gt;Concurrent queue&lt;/b&gt;" style="ellipse;whiteSpace=wrap;html=1;aspect=fixed;" parent="1" vertex="1">
          <mxGeometry x="180" y="290" width="120" height="120" as="geometry" />
        </mxCell>
        <mxCell id="Mglgyc_87ORojp1Q-Y0--20" value="" style="endArrow=classic;html=1;rounded=0;entryX=0.5;entryY=0;entryDx=0;entryDy=0;" parent="1" target="Mglgyc_87ORojp1Q-Y0--19" edge="1">
          <mxGeometry width="50" height="50" relative="1" as="geometry">
            <mxPoint x="240" y="260" as="sourcePoint" />
            <mxPoint x="120" y="530" as="targetPoint" />
          </mxGeometry>
        </mxCell>
        <mxCell id="Mglgyc_87ORojp1Q-Y0--21" value="" style="endArrow=classic;html=1;rounded=0;exitX=1;exitY=0.45;exitDx=0;exitDy=0;entryX=0;entryY=0.5;entryDx=0;entryDy=0;exitPerimeter=0;" parent="1" source="Mglgyc_87ORojp1Q-Y0--19" target="Mglgyc_87ORojp1Q-Y0--3" edge="1">
          <mxGeometry width="50" height="50" relative="1" as="geometry">
            <mxPoint x="270" y="550" as="sourcePoint" />
            <mxPoint x="320" y="500" as="targetPoint" />
          </mxGeometry>
        </mxCell>
      </root>
    </mxGraphModel>
  </diagram>
</mxfile>
